Sinopse e detalhes:

2089. Elizabeth Shaw (Noomi Rapace) e Charlie Holloway (Logan Marshall-Green) são exploradores que encontram a mesma pintura em várias cavernas na Terra. Com base nisto, eles desenvolvem uma teoria em que a pintura aponta para um lugar específico do universo, que teria alguma relação com o início da vida no planeta. A dupla convence um milionário, Peter Weyland (Guy Pearce), a bancar uma cara expedição interestelar para investigar o assunto. Desta forma, Elizabeth e Charlie entram para a tripulação da nave Prometheus, composta pelo robô David (Michael Fassbender), a diretora Meredith Vickers (Charlize Theron), o capitão Janek (Idris Elba), entre outros. Todos, com exceção de David, hibernam em sono criogênico até que a nave chegue ao objetivo, o que acontece em 2093. Encantados com a descoberta de um novo mundo e a possibilidade de revelarem o segredo da origem da vida na Terra, Elizabeth e Charlie não percebem que o local é também bastante perigoso.

Informações do arquivo:

General:

Format                         : Matroska
Format version                 : Version 2
File size                      : 12.5 GiB
Duration                       : 2h 3mn
Overall bit rate               : 14.4 Mbps
Encoded date                   : UTC 2013-01-24 18:33:04
Writing application            : mkvmerge v4.4.0 ('Die Wiederkehr') built on Oct 31 2010 21:52:48
Writing library                : libebml v1.0.0 + libmatroska v1.0.0

Video:

ID                             : 1
Format                         : AVC
Format/Info                    : Advanced Video Codec
Format profile                 : High@L4.1
Format settings, CABAC         : Yes
Format settings, ReFrames      : 5 frames
Muxing mode                    : Header stripping
Codec ID                       : V_MPEG4/ISO/AVC
Duration                       : 2h 3mn
Bit rate                       : 14.0 Mbps
Width                          : 1 920 pixels
Height                         : 800 pixels
Display aspect ratio           : 2.40:1
Frame rate                     : 23.976 fps
Color space                    : YUV
Chroma subsampling             : 4:2:0
Bit depth                      : 8 bits
Scan type                      : Progressive
Bits/(Pixel*Frame)             : 0.380
Stream size                    : 11.8 GiB (95%)
Writing library                : x264 core 128 r2216 198a7ea
Encoding settings              : cabac=1 / ref=5 / deblock=1:-3:-3 / analyse=0x3:0x113 / me=umh / subme=10 / psy=1 / psy_rd=1.12:0.08 / mixed_ref=1 / me_range=48 / chroma_me=1 / trellis=2 / 8x8dct=1 / cqm=0 / deadzone=21,11 / fast_pskip=0 / chroma_qp_offset=-3 / threads=12 / lookahead_threads=2 / sliced_threads=0 / nr=0 / decimate=1 / interlaced=0 / bluray_compat=0 / constrained_intra=0 / bframes=6 / b_pyramid=2 / b_adapt=2 / b_bias=0 / direct=3 / weightb=1 / open_gop=0 / weightp=2 / keyint=240 / keyint_min=23 / scenecut=40 / intra_refresh=0 / rc=2pass / mbtree=0 / bitrate=14000 / ratetol=1.0 / qcomp=0.70 / qpmin=0 / qpmax=69 / qpstep=4 / cplxblur=20.0 / qblur=0.5 / ip_ratio=1.40 / pb_ratio=1.30 / aq=1:0.80
Language                       : English
Default                        : Yes
Forced                         : No

Audio
ID                             : 3
Language                       : Portuguese (Brasilian)
Format                         : AC-3
Format/Info                    : Audio Coding 3
Mode extension                 : CM (complete main)
Format settings, Endianness    : Big
Muxing mode                    : Header stripping
Codec ID                       : A_AC3
Duration                       : 2h 3mn
Bit rate mode                  : Constant
Bit rate                       : 448 Kbps
Channel(s)                     : 6 channels
Channel positions              : Front: L C R, Side: L R, LFE
Sampling rate                  : 48.0 KHz
Bit depth                      : 16 bits
Compression mode               : Lossy
Stream size                    : 397 MiB (3%)
Default                        : Yes
Forced                         : No

Text
ID                             : 2
Format                         : UTF-8
Codec ID                       : S_TEXT/UTF8
Codec ID/Info                  : UTF-8 Plain Text
Language                       : Portuguese (Brasilian)
Default                        : No
Forced                         : No
